<svg xmlns="http://www.w3.org/2000/svg" xmlns:xlink="http://www.w3.org/1999/xlink" viewBox="0 0 386.06 376.97"><defs><style>.cls-1{fill:url(#linear-gradient)}.cls-2{fill:url(#linear-gradient-2)}.cls-3{fill:url(#linear-gradient-3)}.cls-4{fill:url(#linear-gradient-4)}.cls-5{fill:#fff}.cls-6{fill:url(#linear-gradient-5)}.cls-7{fill:url(#linear-gradient-6)}.cls-8{fill:url(#linear-gradient-7)}.cls-9{fill:#403c3a}</style><linearGradient id="linear-gradient" x1="347" y1="19.54" x2="386.06" y2="19.54" gradientUnits="userSpaceOnUse"><stop offset="0" stop-color="#009ee2"/><stop offset="1" stop-color="#1d70b7"/></linearGradient><linearGradient id="linear-gradient-2" x1="347.02" y1="357.38" x2="385.99" y2="357.38" xlink:href="#linear-gradient"/><linearGradient id="linear-gradient-3" x1="115.05" y1="44.79" x2="154.12" y2="44.79" gradientTransform="rotate(180 77.06 201.11)" xlink:href="#linear-gradient"/><linearGradient id="linear-gradient-4" x1="115.07" y1="382.63" x2="154.04" y2="382.63" gradientTransform="rotate(180 77.06 201.11)" xlink:href="#linear-gradient"/><linearGradient id="linear-gradient-5" x1="210.78" y1="67.37" x2="250.14" y2="67.37" gradientTransform="rotate(180 197.295 111.81)" xlink:href="#linear-gradient"/><linearGradient id="linear-gradient-6" x1="184.59" y1="69.37" x2="236.21" y2="69.37" gradientTransform="rotate(180 197.295 111.81)" xlink:href="#linear-gradient"/><linearGradient id="linear-gradient-7" x1="153.25" y1="54.11" x2="182.79" y2="54.11" gradientTransform="rotate(180 197.295 111.81)" xlink:href="#linear-gradient"/></defs><title>Recurso 2xxxhdpi</title><g id="Capa_2" data-name="Capa 2"><g id="Capa_1-2" data-name="Capa 1"><path class="cls-1" d="M347 0h39.06v39.09h-13.28V13.61H347z"/><path class="cls-2" d="M372.43 337.8H386V377h-39v-13.09h25.4z"/><path class="cls-3" d="M39.06 377H0v-39.12h13.28v25.47h25.78z"/><path class="cls-4" d="M13.64 39.17H.07V0H39v13.06H13.64z"/><path class="cls-5" d="M199.24 85c20.22-.13 49.55 2.76 78 12.07a123.24 123.24 0 0 1 14 5.39c8 3.76 9.44 15 2.77 20.86a10.12 10.12 0 0 1-11.23 2c-30.65-12.72-62.84-15.87-95.59-15.39-23.15.34-46 3.09-68.19 10-4.76 1.48-9.43 3.3-14 5.19-6.94 2.84-13 .82-15.83-5.5-2.92-6.49-.52-14.33 6.07-16.75a329 329 0 0 1 33.74-10.86C148.8 87 169.2 85.25 199.24 85z"/><path class="cls-6" d="M151.51 191.31c8.37 0 9.9-11.79 1.81-13.9v-23.63c10.2-10.11 20.29-20.31 30.49-30.47a23.72 23.72 0 0 1-3-2.11q-15.43 15.55-31.05 31.16v25c-8.06 2.15-6.54 13.95 1.75 13.95zm0-10.59a3.53 3.53 0 1 1-3.53 3.53 3.53 3.53 0 0 1 3.53-3.53z"/><path class="cls-7" d="M162.85 153a21.26 21.26 0 1 0 35.15 2.19l12-12v-18.38c-3.25 1.64-8.07-3.78-11.77-3.61l1.2 17.59c-3.06 3-6 5.94-9 8.86a21.28 21.28 0 0 0-27.58 5.35zm27.44 13a10.63 10.63 0 1 1-10.59-10.55A10.63 10.63 0 0 1 190.29 166z"/><path class="cls-8" d="M218.86 221c8.37 0 9.9-11.83 1.81-13.94V168c2.48 2.45 4.95 4.95 7.42 7.4-4.28 7.28 5.25 14.5 11.15 8.7s-1.53-15.45-8.67-11.15c-3.34-3.36-6.56-6.67-9.9-9.9v-43.96a8.17 8.17 0 0 1-1.72-1c-.56.64-1.23 1.33-1.81 1.89V207c-8.09 2.12-6.56 14 1.72 14zm15.32-45.45a3.51 3.51 0 1 1 0 7 3.51 3.51 0 0 1 0-7zm-15.32 34.86a3.52 3.52 0 0 1 3.62 3.53 3.57 3.57 0 0 1-7.14 0 3.5 3.5 0 0 1 3.52-3.57z"/><path class="cls-9" d="M187.22 69c38 .39 68.95 3.78 98.77 14.25 4 1.4 8 2.93 11.8 4.7 11.08 5.08 17.35 16.62 16 29.16a28.2 28.2 0 0 1-21.48 24.34 6.4 6.4 0 0 0-3.49 3.19Q252 218.88 215.37 293.17c-6.14 12.43-19 17.84-31.31 13a24.43 24.43 0 0 1-13.28-12.8c-12.13-25.29-24.12-50.65-36.55-75.79C122.09 193 109.49 168.65 97 144.26a5.28 5.28 0 0 0-3-2.36c-12.37-3.25-20.8-12.88-21.78-25.1-1-12.82 5.5-23.79 17.38-29 20.31-8.89 41.7-13.69 63.61-16.13 13.46-1.5 27.05-2.1 34.01-2.67zm87 68.64c-29.43-17.91-137.14-17.6-162.23.44l1.59 3.17q25.84 51.8 51.66 103.61c6.86 13.83 13.41 27.81 20.1 41.72 1.54 3.21 4 5.14 7.63 5.17s6.13-1.85 7.7-5.05l.71-1.47 71.63-145c.43-.82.81-1.7 1.2-2.54zM199.24 85c-30 .28-50.44 2-70.35 7a329 329 0 0 0-33.74 10.8c-6.59 2.42-9 10.26-6.07 16.75 2.84 6.32 8.89 8.34 15.83 5.5 4.62-1.89 9.28-3.71 14-5.19 22.2-6.91 45-9.66 68.19-10 32.75-.48 64.95 2.67 95.59 15.39a10.12 10.12 0 0 0 11.23-2c6.66-5.86 5.26-17.1-2.77-20.86a123.24 123.24 0 0 0-14-5.39c-28.36-9.26-57.69-12.15-77.91-12z"/></g></g></svg>